<svg width="53" height="52" viewBox="0 0 53 52" fill="none" xmlns="http://www.w3.org/2000/svg">
<path d="M26.7636 0.727295C12.3563 0.727295 0.675293 12.4083 0.675293 26.8156C0.675293 39.0402 9.09312 49.2689 20.4415 52.0995C20.3198 51.7473 20.2415 51.3386 20.2415 50.8321V46.3731C19.1828 46.3731 17.4088 46.3731 16.9631 46.3731C15.1782 46.3731 13.5912 45.6057 12.8216 44.1796C11.9672 42.5947 11.8193 40.1707 9.70185 38.688C9.07355 38.1945 9.55184 37.6314 10.2758 37.7075C11.6128 38.0858 12.7216 39.0032 13.7651 40.3641C14.8043 41.7273 15.2934 42.036 17.2348 42.036C18.1762 42.036 19.585 41.9816 20.9111 41.7729C21.6242 39.9619 22.8569 38.2945 24.3635 37.5075C15.6761 36.6139 11.5302 32.292 11.5302 26.4243C11.5302 23.8981 12.6063 21.4545 14.4347 19.3957C13.8347 17.3521 13.0803 13.1845 14.6651 11.5974C18.574 11.5974 20.9372 14.1323 21.5046 14.8172C23.4526 14.1497 25.5918 13.7715 27.8397 13.7715C30.092 13.7715 32.24 14.1497 34.1922 14.8215C34.7531 14.141 37.1185 11.5974 41.0361 11.5974C42.6275 13.1866 41.8644 17.3716 41.2578 19.4109C43.0753 21.4653 44.1449 23.9024 44.1449 26.4243C44.1449 32.2876 40.0056 36.6074 31.3312 37.5053C33.7183 38.751 35.4597 42.2512 35.4597 44.8883V50.8321C35.4597 51.0582 35.4097 51.2212 35.3836 51.4147C45.5494 47.8515 52.8519 38.1988 52.8519 26.8156C52.8519 12.4083 41.1709 0.727295 26.7636 0.727295Z" fill="#E3E5BC"/>
</svg>
